<svg width="519" height="578" viewBox="0 0 519 578" fill="none" xmlns="http://www.w3.org/2000/svg">
<path fill-rule="evenodd" clip-rule="evenodd" d="M493.805 4.98483C481.98 7.70483 455.43 13.7238 434.805 18.3588C414.18 22.9948 344.43 38.7498 279.805 53.3708C215.18 67.9918 150.172 82.6688 135.343 85.9878C36.885 108.018 -13.737 163.277 3.23698 230.194C11.464 262.624 8.77299 260.02 140.186 362.722C169.201 385.398 167.56 395.051 130.177 421.6C99.293 443.532 80.822 462.407 51.631 501.862C32.743 527.391 0.737967 577.862 3.43797 577.862C3.80797 577.862 10.23 574.647 17.708 570.717C49.863 553.819 102.42 526.037 115.805 518.861C123.78 514.586 142.23 504.794 156.805 497.102C212.045 467.949 228.575 459.008 237.305 453.558C298.228 415.528 304.519 355 251.805 314.042C191.135 266.901 129.862 216.618 127.674 212.173C120.823 198.258 127.135 178.719 141.133 170.516C147.674 166.682 139.141 168.749 319.305 127.366C356.705 118.776 397.205 109.458 409.305 106.66C450.747 97.0778 471.256 83.0048 494.269 48.3618C504.251 33.3358 518.805 4.89683 518.805 0.418833C518.805 -0.606167 515.425 0.0108275 493.805 4.98483ZM405.305 153.455C364.964 162.437 283.766 180.209 240.805 189.46C199.967 198.254 201.945 197.691 200.229 201.01C196.929 207.391 197.066 207.545 230.805 235.536C256.666 256.99 260.437 259.862 262.752 259.862C270.336 259.862 378.658 234.458 385.278 231.127C413.027 217.163 442.242 179.213 450.339 146.612C451.235 143.003 454.415 142.52 405.305 153.455ZM369.305 280.834C359.955 282.918 341.404 286.991 328.081 289.885C303.858 295.147 303.858 295.147 307.682 299.755C315.989 309.764 324.637 324.712 329.293 337.112C331.465 342.896 330.757 342.901 340.52 337.034C359.584 325.575 371.269 312.434 382.346 289.994C387.012 280.541 388.377 276.813 387.122 276.953C386.673 277.003 378.655 278.75 369.305 280.834Z" fill="white"/>
</svg>
